<?xml version="1.0" encoding="utf-8"?>
<!-- Generator: Adobe Illustrator 26.0.3, SVG Export Plug-In . SVG Version: 6.00 Build 0)  -->
<svg version="1.1" id="Layer_1" xmlns="http://www.w3.org/2000/svg" xmlns:xlink="http://www.w3.org/1999/xlink" x="0px" y="0px"
	 viewBox="0 0 800 480" style="enable-background:new 0 0 800 480;" xml:space="preserve">
<style type="text/css">
	.st0{fill:#BDE5F8;}
</style>
<rect class="st0" width="800" height="480"/>
<g>
	<path d="M320.6,248.2h-5.5v-4l0.5-10.8l-4.9,14.9h-3.6l-4.9-14.9l0.5,10.8v4h-5.5v-21.3h4.6h2.6L309,241l4.4-14.2h7.2V248.2z"/>
	<path d="M328.4,225.9c0.4,0.2,0.8,0.5,1,0.9s0.4,0.9,0.4,1.4c0,0.5-0.1,1-0.4,1.4s-0.6,0.7-1,0.9s-0.9,0.3-1.5,0.3
		c-0.6,0-1.1-0.1-1.5-0.3s-0.8-0.5-1-0.9s-0.4-0.9-0.4-1.4c0-0.5,0.1-1,0.4-1.4s0.6-0.7,1-0.9s0.9-0.3,1.5-0.3
		C327.5,225.6,328,225.7,328.4,225.9z M324.3,248.2v-15.8h5.3v15.8H324.3z"/>
	<path d="M334.2,240.3c-1-0.8-1.5-1.9-1.5-3.2c0-0.9,0.3-1.8,0.8-2.6s1.3-1.4,2.3-1.9s2.2-0.7,3.5-0.7c1.4,0,2.7,0.2,3.7,0.6
		s1.9,1,2.5,1.8s0.9,1.7,0.9,2.7H341c0-0.6-0.1-1-0.4-1.3s-0.7-0.4-1.4-0.4c-0.4,0-0.8,0.1-1.2,0.3s-0.5,0.5-0.5,0.9
		c0,0.8,0.8,1.3,2.5,1.6c1.2,0.2,2.2,0.5,3.1,0.8s1.6,0.9,2.2,1.6s0.9,1.6,0.9,2.7c0,0.9-0.3,1.8-0.9,2.5s-1.4,1.3-2.5,1.8
		s-2.3,0.6-3.7,0.6c-1.5,0-2.7-0.3-3.8-0.8s-1.9-1.2-2.4-2.1s-0.8-1.7-0.8-2.6h4.9c0,0.6,0.2,1.1,0.6,1.4s1,0.5,1.7,0.5
		c0.6,0,1.1-0.1,1.4-0.3s0.5-0.5,0.5-0.9c0-0.2-0.1-0.4-0.3-0.6s-0.5-0.3-0.9-0.5s-1-0.3-1.9-0.5
		C336.5,241.7,335.2,241.2,334.2,240.3z"/>
	<path d="M350.1,240.3c-1-0.8-1.5-1.9-1.5-3.2c0-0.9,0.3-1.8,0.8-2.6s1.3-1.4,2.3-1.9s2.2-0.7,3.5-0.7c1.4,0,2.7,0.2,3.7,0.6
		s1.9,1,2.5,1.8s0.9,1.7,0.9,2.7H357c0-0.6-0.1-1-0.4-1.3s-0.7-0.4-1.4-0.4c-0.4,0-0.8,0.1-1.2,0.3s-0.5,0.5-0.5,0.9
		c0,0.8,0.8,1.3,2.5,1.6c1.2,0.2,2.2,0.5,3.1,0.8s1.6,0.9,2.2,1.6s0.9,1.6,0.9,2.7c0,0.9-0.3,1.8-0.9,2.5s-1.4,1.3-2.5,1.8
		s-2.3,0.6-3.7,0.6c-1.5,0-2.7-0.3-3.8-0.8s-1.9-1.2-2.4-2.1s-0.8-1.7-0.8-2.6h4.9c0,0.6,0.2,1.1,0.6,1.4s1,0.5,1.7,0.5
		c0.6,0,1.1-0.1,1.4-0.3s0.5-0.5,0.5-0.9c0-0.2-0.1-0.4-0.3-0.6s-0.5-0.3-0.9-0.5s-1-0.3-1.9-0.5
		C352.5,241.7,351.1,241.2,350.1,240.3z"/>
	<path d="M369.3,225.9c0.4,0.2,0.8,0.5,1,0.9s0.4,0.9,0.4,1.4c0,0.5-0.1,1-0.4,1.4s-0.6,0.7-1,0.9s-0.9,0.3-1.5,0.3
		c-0.6,0-1.1-0.1-1.5-0.3s-0.8-0.5-1-0.9s-0.4-0.9-0.4-1.4c0-0.5,0.1-1,0.4-1.4s0.6-0.7,1-0.9s0.9-0.3,1.5-0.3
		C368.4,225.6,368.9,225.7,369.3,225.9z M365.2,248.2v-15.8h5.3v15.8H365.2z"/>
	<path d="M387.1,233.5c0.9,1,1.3,2.6,1.3,4.8v9.8h-5.3v-9.9c0-0.6-0.1-1-0.2-1.3s-0.4-0.5-0.7-0.6s-0.7-0.2-1.2-0.2
		c-0.9,0-1.5,0.3-1.9,0.9v11h-5.3v-15.8h4.9l0.2,1.8c0.5-0.7,1.2-1.2,1.9-1.6s1.6-0.5,2.5-0.5C385,232,386.2,232.5,387.1,233.5z"/>
	<path d="M406.2,232.3v15.2c0,1.5-0.3,2.7-1,3.7s-1.6,1.8-2.9,2.4s-2.7,0.8-4.4,0.8c-1.1,0-2.2-0.2-3.3-0.6s-1.9-1-2.6-1.6l2.2-3.3
		c1,1,2.2,1.5,3.6,1.5c1,0,1.8-0.3,2.3-0.8s0.8-1.2,0.8-2.2v-0.5c-0.9,1-2.1,1.6-3.5,1.6c-1.3,0-2.5-0.3-3.4-1s-1.7-1.6-2.3-2.9
		s-0.8-2.6-0.8-4.1v-0.3c0-1.6,0.3-3,0.8-4.2s1.3-2.2,2.3-2.8s2.1-1,3.5-1c1.6,0,2.9,0.5,3.8,1.6l0.2-1.3H406.2z M400.9,243.4v-6.2
		c-0.4-0.6-1.1-0.9-2.1-0.9c-0.8,0-1.5,0.4-1.9,1.1s-0.7,1.7-0.7,2.8v0.3c0,1.1,0.2,2.1,0.7,2.8s1.1,1.1,1.9,1.1
		C399.8,244.2,400.5,243.9,400.9,243.4z"/>
	<path d="M418.1,248.2v-21.3h5.4v21.3H418.1z"/>
	<path d="M449.1,233.5c0.9,1,1.3,2.6,1.3,4.8v9.8h-5.3v-9.8c0-0.6-0.1-1-0.2-1.3s-0.3-0.5-0.5-0.6s-0.5-0.2-0.9-0.2
		c-0.9,0-1.5,0.4-2,1.1v0.2v10.6h-5.3v-9.8c0-0.6-0.1-1.1-0.2-1.4s-0.3-0.5-0.5-0.6s-0.6-0.1-1-0.1c-0.4,0-0.8,0.1-1.1,0.3
		s-0.6,0.5-0.9,0.8v10.8h-5.2v-15.8h4.9l0.2,1.9c0.5-0.7,1.2-1.2,1.9-1.6s1.6-0.6,2.6-0.6c2,0,3.3,0.8,4,2.4
		c0.5-0.8,1.1-1.4,1.9-1.8s1.7-0.6,2.7-0.6C447.1,232,448.3,232.5,449.1,233.5z"/>
	<path d="M467.2,246.5c0.1,0.5,0.3,1,0.5,1.5v0.2h-5.2c-0.2-0.3-0.3-0.8-0.4-1.4c-0.4,0.5-0.9,0.9-1.5,1.2s-1.3,0.4-2.3,0.4
		c-1,0-1.8-0.2-2.7-0.6s-1.5-1-2-1.7s-0.7-1.6-0.7-2.5c0-1.7,0.6-2.9,1.8-3.8s3.1-1.4,5.6-1.4h1.4v-0.7c0-0.6-0.1-1.1-0.4-1.5
		s-0.7-0.5-1.3-0.5c-0.5,0-0.9,0.1-1.1,0.4s-0.4,0.6-0.4,1.2h-5.2c0-1,0.3-2,0.9-2.8s1.4-1.4,2.5-1.9s2.3-0.7,3.7-0.7
		c1.3,0,2.4,0.2,3.4,0.7c1,0.4,1.8,1.1,2.4,1.9s0.9,1.9,0.9,3.2v6.2C467,245.1,467.1,245.9,467.2,246.5z M460.9,244.3
		c0.4-0.2,0.7-0.4,0.8-0.7v-2.3h-1.5c-0.8,0-1.3,0.2-1.6,0.6s-0.5,0.9-0.5,1.5c0,0.4,0.1,0.6,0.4,0.8s0.6,0.3,1,0.3
		C460.1,244.6,460.6,244.5,460.9,244.3z"/>
	<path d="M484.8,232.3v15.2c0,1.5-0.3,2.7-1,3.7s-1.6,1.8-2.9,2.4s-2.7,0.8-4.4,0.8c-1.1,0-2.2-0.2-3.3-0.6s-1.9-1-2.6-1.6l2.2-3.3
		c1,1,2.2,1.5,3.6,1.5c1,0,1.8-0.3,2.3-0.8s0.8-1.2,0.8-2.2v-0.5c-0.9,1-2.1,1.6-3.5,1.6c-1.3,0-2.5-0.3-3.4-1
		c-1-0.7-1.7-1.6-2.3-2.9s-0.8-2.6-0.8-4.1v-0.3c0-1.6,0.3-3,0.8-4.2s1.3-2.2,2.3-2.8s2.1-1,3.5-1c1.6,0,2.9,0.5,3.8,1.6l0.2-1.3
		H484.8z M479.6,243.4v-6.2c-0.4-0.6-1.1-0.9-2.1-0.9c-0.8,0-1.5,0.4-1.9,1.1s-0.7,1.7-0.7,2.8v0.3c0,1.1,0.2,2.1,0.7,2.8
		s1.1,1.1,1.9,1.1C478.4,244.2,479.1,243.9,479.6,243.4z"/>
	<path d="M502.6,242H493c0.2,0.7,0.6,1.2,1.2,1.6c0.6,0.4,1.3,0.6,2.1,0.6c0.7,0,1.4-0.1,2-0.4c0.6-0.2,1.2-0.6,1.6-1.1l2.3,3.1
		c-0.4,0.5-0.8,0.9-1.4,1.3s-1.3,0.7-2.2,1s-1.7,0.4-2.7,0.4c-1.7,0-3.2-0.4-4.4-1.1s-2.2-1.6-2.9-2.8c-0.7-1.2-1-2.5-1-3.8v-0.5
		c0-1.5,0.3-2.9,0.8-4.2s1.4-2.2,2.6-2.9s2.6-1.1,4.3-1.1c1.5,0,2.8,0.3,3.9,0.9c1.1,0.6,1.9,1.5,2.5,2.7c0.6,1.2,0.9,2.5,0.9,4.1
		V242z M495.3,236.3c-0.7,0-1.3,0.2-1.6,0.6s-0.6,1-0.7,1.8h4.6v-0.4C497.6,236.9,496.8,236.3,495.3,236.3z"/>
</g>
</svg>
